<svg version="1.1" id="Layer_1" xmlns:x="ns_extend;" xmlns:i="ns_ai;" xmlns:graph="ns_graphs;" xmlns="http://www.w3.org/2000/svg" xmlns:xlink="http://www.w3.org/1999/xlink" x="0px" y="0px" viewBox="0 0 174 41" style="enable-background:new 0 0 174 41;" xml:space="preserve">
 <style type="text/css">
  .st0{fill:#FFFFFF;}
 </style>
 <metadata>
  <sfw xmlns="ns_sfw;">
   <slices>
   </slices>
   <sliceSourceBounds bottomLeftOrigin="true" height="41" width="174" x="-73.7" y="-220.6">
   </sliceSourceBounds>
  </sfw>
 </metadata>
 <g>
  <path class="st0" d="M65.1,16.2v12.7h-4.6V17.2c0-3-1.6-4.6-4.2-4.6s-4.6,1.8-4.6,4.9v11.1h-4.6V9h4l0.5,2.5c1.4-1.9,3.7-3,6.5-3
		C62.1,8.4,65.1,11.6,65.1,16.2z M68.8,18.8c0-6,4.7-10.6,10.7-10.6s10.7,4.4,10.7,10.4c0,6-4.9,10.6-10.7,10.6
		C73.5,29.2,68.8,24.8,68.8,18.8z M85.6,18.8c0-3.7-2.6-6.3-6.1-6.3s-6.1,2.6-6.1,6.3s2.6,6.3,6.1,6.3S85.6,22.5,85.6,18.8z
		 M123.8,16v12.8H119V17.2c0-3-1.6-4.6-3.9-4.6c-2.5,0-4.2,1.8-4.2,4.9v11.3h-4.6V17.2c0-3-1.6-4.6-3.9-4.6c-2.5,0-4.2,1.8-4.2,4.9
		v11.3h-4.6V9h3.9l0.5,2.5c1.4-1.8,3.5-3,6-3c2.6,0,4.9,1.4,6,3.9c1.2-2.3,3.7-3.9,6.7-3.9C120.8,8.4,123.8,11.4,123.8,16z
		 M150.2,18.8c0,6.2-4.6,10.4-10,10.4c-3,0-5.4-1.2-7.2-3.3l-0.5,3h-4V0.7l4.6-0.5v11.6c1.6-2.1,4-3.2,7-3.2
		C145.8,8.4,150.2,12.7,150.2,18.8z M145.6,18.8c0-3.7-2.6-6.3-6-6.3s-6.1,2.6-6.1,6.3s2.8,6.3,6.1,6.3S145.6,22.5,145.6,18.8z
		 M170,9h4v19.9h-4l-0.5-3c-1.6,2.3-4.2,3.5-7.2,3.5c-5.4,0-9.8-4.2-9.8-10.4s4.4-10.4,10-10.4c3,0,5.4,1.2,7.2,3.3L170,9z
		 M169.3,18.8c0-3.7-2.8-6.3-6.1-6.3s-6,2.6-6,6.3s2.6,6.3,6,6.3S169.3,22.5,169.3,18.8z M21.2,16.5l3.5-2.1l3.5-2.1l3.5-2.1
		l3.5-2.1V0l-3.5,2.1l-3.5,2.1l-3.5,2.1l-3.5,2.1l-3.5,2.1v4l-3.5-2.1l-3.5-2.1L7,8.3L3.5,6.2L0,4v8.1l3.5,2.1L7,16.4l3.5,2.1
		l3.5,2.1l3.5,2.1L14,24.8l-3.5,2.1L7,29l-3.5,2.1L0,32.9V41l3.5-2.1L7,36.8l3.5-2.1l3.5-2.1l3.5-2.1v-4l3.5,2.1l3.5,2.1l3.5,2.1
		l3.5,2.1L35,37v-8.1l-3.5-2.1L28,24.6l-3.5-2.1L21,20.4l-3.5-2.1L21.2,16.5z">
  </path>
 </g>
</svg>